<mxfile host="app.diagrams.net" modified="2021-11-03T01:36:15.760Z" agent="5.0 (Windows NT 10.0; Win64; x64) AppleWebKit/537.36 (KHTML, like Gecko) Chrome/95.0.4638.69 Safari/537.36" etag="-M3OuFxg5IzSFmyLLp_g" version="15.6.6" type="github">
  <diagram name="Page-1" id="2cc2dc42-3aac-f2a9-1cec-7a8b7cbee084">
    <mxGraphModel dx="1673" dy="896" grid="1" gridSize="10" guides="1" tooltips="1" connect="1" arrows="1" fold="1" page="1" pageScale="1" pageWidth="1100" pageHeight="850" background="none" math="0" shadow="0">
      <root>
        <mxCell id="0" />
        <mxCell id="1" parent="0" />
        <mxCell id="fFsLqNi4x1Xf9s_ecCak-1" value="" style="rounded=1;whiteSpace=wrap;html=1;fontColor=default;fillColor=default;strokeColor=default;" parent="1" vertex="1">
          <mxGeometry x="310" y="240" width="502.5" height="430" as="geometry" />
        </mxCell>
        <mxCell id="fFsLqNi4x1Xf9s_ecCak-2" value="" style="endArrow=none;html=1;rounded=0;fontColor=default;strokeColor=default;labelBackgroundColor=default;" parent="1" edge="1">
          <mxGeometry width="50" height="50" relative="1" as="geometry">
            <mxPoint x="10" y="90" as="sourcePoint" />
            <mxPoint x="1090" y="90" as="targetPoint" />
          </mxGeometry>
        </mxCell>
        <mxCell id="fFsLqNi4x1Xf9s_ecCak-3" value="Login" style="rounded=0;whiteSpace=wrap;html=1;fontColor=default;strokeColor=default;fillColor=default;" parent="1" vertex="1">
          <mxGeometry x="990" y="40" width="100" height="30" as="geometry" />
        </mxCell>
        <mxCell id="fFsLqNi4x1Xf9s_ecCak-4" value="Sign up" style="rounded=0;whiteSpace=wrap;html=1;fontColor=default;strokeColor=default;fillColor=default;" parent="1" vertex="1">
          <mxGeometry x="860" y="40" width="100" height="30" as="geometry" />
        </mxCell>
        <mxCell id="fFsLqNi4x1Xf9s_ecCak-5" value="" style="rounded=0;whiteSpace=wrap;html=1;fontColor=default;strokeColor=default;fillColor=default;" parent="1" vertex="1">
          <mxGeometry x="351.25" y="370" width="425" height="40" as="geometry" />
        </mxCell>
        <mxCell id="fFsLqNi4x1Xf9s_ecCak-6" value="" style="rounded=0;whiteSpace=wrap;html=1;fontColor=default;strokeColor=default;fillColor=default;" parent="1" vertex="1">
          <mxGeometry x="348.75" y="440" width="425" height="40" as="geometry" />
        </mxCell>
        <mxCell id="fFsLqNi4x1Xf9s_ecCak-7" value="&lt;span style=&quot;font-size: 20px&quot;&gt;Sign Up page&lt;/span&gt;" style="text;html=1;strokeColor=none;fillColor=none;align=center;verticalAlign=middle;whiteSpace=wrap;rounded=0;fontColor=default;" parent="1" vertex="1">
          <mxGeometry x="391.25" y="180" width="315" height="60" as="geometry" />
        </mxCell>
        <mxCell id="fFsLqNi4x1Xf9s_ecCak-8" value="&lt;font style=&quot;font-size: 17px&quot;&gt;Email:&lt;/font&gt;" style="text;html=1;strokeColor=none;fillColor=none;align=center;verticalAlign=middle;whiteSpace=wrap;rounded=0;fontSize=20;fontColor=default;" parent="1" vertex="1">
          <mxGeometry x="351.25" y="340" width="60" height="30" as="geometry" />
        </mxCell>
        <mxCell id="fFsLqNi4x1Xf9s_ecCak-9" value="&lt;font style=&quot;font-size: 17px&quot;&gt;Password:&lt;/font&gt;" style="text;html=1;strokeColor=none;fillColor=none;align=center;verticalAlign=middle;whiteSpace=wrap;rounded=0;fontSize=20;fontColor=default;" parent="1" vertex="1">
          <mxGeometry x="368.75" y="410" width="60" height="30" as="geometry" />
        </mxCell>
        <mxCell id="fFsLqNi4x1Xf9s_ecCak-15" value="Log In" style="rounded=0;whiteSpace=wrap;html=1;fontSize=14;strokeColor=#23445d;fillColor=#bac8d3;fontColor=default;" parent="1" vertex="1">
          <mxGeometry x="348.75" y="590" width="425" height="35" as="geometry" />
        </mxCell>
        <mxCell id="fFsLqNi4x1Xf9s_ecCak-18" value="" style="endArrow=none;html=1;rounded=0;fontColor=default;strokeColor=default;labelBackgroundColor=default;" parent="1" edge="1">
          <mxGeometry width="50" height="50" relative="1" as="geometry">
            <mxPoint x="10" y="760" as="sourcePoint" />
            <mxPoint x="1090" y="760" as="targetPoint" />
          </mxGeometry>
        </mxCell>
        <mxCell id="fFsLqNi4x1Xf9s_ecCak-19" value="Footer" style="text;html=1;strokeColor=none;fillColor=none;align=center;verticalAlign=middle;whiteSpace=wrap;rounded=0;fontColor=default;" parent="1" vertex="1">
          <mxGeometry x="520" y="790" width="150" height="40" as="geometry" />
        </mxCell>
        <mxCell id="fFsLqNi4x1Xf9s_ecCak-21" value="" style="rounded=0;whiteSpace=wrap;html=1;fontColor=default;strokeColor=default;fillColor=default;" parent="1" vertex="1">
          <mxGeometry x="351.25" y="300" width="425" height="40" as="geometry" />
        </mxCell>
        <mxCell id="fFsLqNi4x1Xf9s_ecCak-22" value="&lt;font style=&quot;font-size: 17px&quot;&gt;Full Name:&lt;/font&gt;" style="text;html=1;strokeColor=none;fillColor=none;align=center;verticalAlign=middle;whiteSpace=wrap;rounded=0;fontSize=20;fontColor=default;strokeWidth=5;" parent="1" vertex="1">
          <mxGeometry x="351.25" y="270" width="95" height="30" as="geometry" />
        </mxCell>
        <mxCell id="fFsLqNi4x1Xf9s_ecCak-25" value="" style="rounded=0;whiteSpace=wrap;html=1;fontColor=default;strokeColor=default;fillColor=default;" parent="1" vertex="1">
          <mxGeometry x="348.75" y="510" width="425" height="40" as="geometry" />
        </mxCell>
        <mxCell id="fFsLqNi4x1Xf9s_ecCak-26" value="&lt;font style=&quot;font-size: 17px&quot;&gt;Confirm Password:&lt;/font&gt;" style="text;html=1;strokeColor=none;fillColor=none;align=center;verticalAlign=middle;whiteSpace=wrap;rounded=0;fontSize=20;fontColor=default;" parent="1" vertex="1">
          <mxGeometry x="348.75" y="480" width="157.5" height="30" as="geometry" />
        </mxCell>
        <mxCell id="v4QoWUyf7ch8onafb4D1-6" value="&lt;font style=&quot;font-size: 18px&quot;&gt;main page&lt;/font&gt;" style="text;html=1;strokeColor=none;fillColor=none;align=center;verticalAlign=middle;whiteSpace=wrap;rounded=0;fontColor=#007FFF;spacing=6;" vertex="1" parent="1">
          <mxGeometry x="40" y="40" width="110" height="30" as="geometry" />
        </mxCell>
        <mxCell id="v4QoWUyf7ch8onafb4D1-7" value="" style="rounded=0;whiteSpace=wrap;html=1;fontColor=#007FFF;strokeColor=default;fillColor=default;" vertex="1" parent="1">
          <mxGeometry x="366.25" y="40" width="410" height="25" as="geometry" />
        </mxCell>
        <mxCell id="v4QoWUyf7ch8onafb4D1-8" value="" style="rounded=0;whiteSpace=wrap;html=1;strokeColor=default;fillColor=default;fontColor=default;" vertex="1" parent="1">
          <mxGeometry x="366.25" y="40" width="30" height="25" as="geometry" />
        </mxCell>
        <mxCell id="v4QoWUyf7ch8onafb4D1-9" value="" style="rounded=0;whiteSpace=wrap;html=1;fontColor=default;strokeColor=default;fillColor=default;rotation=-50;" vertex="1" parent="1">
          <mxGeometry x="366.25" y="50.959999999999994" width="20" height="8.08" as="geometry" />
        </mxCell>
        <mxCell id="v4QoWUyf7ch8onafb4D1-10" value="" style="ellipse;whiteSpace=wrap;html=1;aspect=fixed;fontColor=default;strokeColor=default;fillColor=default;" vertex="1" parent="1">
          <mxGeometry x="372.21" y="40" width="19.04" height="19.04" as="geometry" />
        </mxCell>
      </root>
    </mxGraphModel>
  </diagram>
</mxfile>
